<svg width="97" height="53" viewBox="0 0 97 53" fill="none" xmlns="http://www.w3.org/2000/svg">
<mask id="mask0" mask-type="alpha" maskUnits="userSpaceOnUse" x="0" y="0" width="57" height="50">
<path d="M0 0H56.4932L5.90227 49.8682H0V0Z" fill="#C4C4C4"/>
</mask>
<g mask="url(#mask0)">
<path d="M21.4614 9.39279C21.7805 10.1916 21.7805 11.4697 21.1423 12.4283C20.0254 14.3455 17.6322 14.665 16.3558 14.665H1.03906V-0.0332794H15.3985C17.7918 -0.0332794 19.8659 0.286249 20.6636 2.68271C20.9827 3.48153 20.8232 4.9194 20.0254 5.87799C19.7063 6.19751 18.7491 6.83657 17.9513 7.1561C19.0681 7.31586 20.6636 7.63539 21.4614 9.39279ZM11.8884 5.39869C13.0053 5.39869 13.9626 5.39869 13.9626 4.44011C13.9626 3.48153 13.0053 3.48153 11.8884 3.48153H6.94239V5.39869H11.8884ZM12.2075 11.1502C13.3244 11.1502 14.7603 11.1502 14.7603 9.87208C14.7603 8.59397 13.3244 8.59397 12.2075 8.59397H6.94239V11.1502H12.2075Z" fill="#141A17"/>
<path d="M38.5339 -0.0332794V3.48153H28.9609V5.23893H37.7362V8.75374H28.9609V10.9904H39.0126V14.665H23.0576V-0.0332794H38.5339Z" fill="#141A17"/>
<path d="M56.2425 -0.0332794V3.48153H46.6696V5.23893H55.4448V8.75374H46.6696V10.9904H56.8807V14.665H40.9258V-0.0332794H56.2425Z" fill="#141A17"/>
<path d="M10.4532 17.0617C15.7184 17.0617 20.0262 19.4582 20.0262 24.8901C20.0262 30.1623 15.7184 32.7186 10.4532 32.7186C5.1881 32.7186 0.880269 30.3221 0.880269 24.8901C0.72072 19.6179 5.02855 17.0617 10.4532 17.0617ZM10.4532 28.8842C13.1656 28.8842 14.442 27.6061 14.442 24.8901C14.442 22.1742 13.006 20.896 10.4532 20.896C7.74089 20.896 6.4645 22.3339 6.4645 24.8901C6.4645 27.6061 7.90044 28.8842 10.4532 28.8842Z" fill="#141A17"/>
<path d="M34.2259 25.2094V17.5408H39.6505V32.239H33.2686L26.8866 23.9313V32.239H21.4619V17.5408H28.3225L34.2259 25.2094Z" fill="#141A17"/>
<path d="M16.9947 39.4284H11.7296V49.8131H5.98583V39.4284H0.720703V35.1148H16.9947V39.4284Z" fill="#141A17"/>
<path d="M35.9805 37.1917C36.7782 38.4698 36.6187 40.2272 36.2996 41.3456C35.8209 42.7834 34.385 43.5823 33.1086 43.9018L36.9378 49.6533H30.3963L27.3648 44.3811H24.1738V49.6533H18.2705V35.1148H31.5131C33.7468 35.1148 35.1827 35.9136 35.9805 37.1917ZM27.6839 41.3456C28.8008 41.3456 29.9176 41.3456 30.5558 40.7065C30.8749 40.2272 30.8749 39.7479 30.5558 39.2686C30.0772 38.4698 28.9603 38.4698 28.003 38.4698H24.3334V41.3456H27.6839Z" fill="#141A17"/>
<path d="M51.9362 35.1148L57.8396 49.8131H52.4149L51.298 47.0971H44.2779L43.161 49.8131H37.7363L43.6397 35.1148H51.9362ZM50.1812 43.9018L47.9475 38.4698L45.7138 43.9018H50.1812Z" fill="#141A17"/>
</g>
<mask id="mask1" mask-type="alpha" maskUnits="userSpaceOnUse" x="7" y="3" width="90" height="50">
<path d="M96.6035 53H7.58763L56.4922 3.13183H96.6035V53Z" fill="#C4C4C4"/>
</mask>
<g mask="url(#mask1)">
<path d="M22.6674 12.5246C22.9865 13.3235 22.9865 14.6016 22.3483 15.5602C21.2315 17.4773 18.8383 17.7969 17.5619 17.7969H2.24512V3.09857H16.6046C18.9978 3.09857 21.0719 3.4181 21.8697 5.81456C22.1888 6.61338 22.0292 8.05125 21.2315 9.00984C20.9124 9.32936 19.9551 9.96842 19.1574 10.2879C20.2742 10.4477 21.8697 10.7672 22.6674 12.5246ZM13.0945 8.53055C14.2113 8.53055 15.1686 8.53055 15.1686 7.57196C15.1686 6.61338 14.2113 6.61338 13.0945 6.61338H8.14845V8.53055H13.0945ZM13.4136 14.282C14.5304 14.282 15.9664 14.282 15.9664 13.0039C15.9664 11.7258 14.5304 11.7258 13.4136 11.7258H8.14845V14.282H13.4136Z" fill="#141A17"/>
<path d="M39.74 3.09857V6.61338H30.167V8.37078H38.9422V11.8856H30.167V14.1223H40.2186V17.7969H24.2637V3.09857H39.74Z" fill="#141A17"/>
<path d="M57.4486 3.09857V6.61338H47.8756V8.37078H56.6508V11.8856H47.8756V14.1223H58.0868V17.7969H42.1318V3.09857H57.4486Z" fill="#141A17"/>
<path d="M11.6593 20.1936C16.9244 20.1936 21.2323 22.59 21.2323 28.022C21.2323 33.2942 16.9244 35.8504 11.6593 35.8504C6.39416 35.8504 2.08632 33.454 2.08632 28.022C1.92677 22.7498 6.23461 20.1936 11.6593 20.1936ZM11.6593 32.0161C14.3716 32.0161 15.648 30.738 15.648 28.022C15.648 25.306 14.2121 24.0279 11.6593 24.0279C8.94695 24.0279 7.67055 25.4658 7.67055 28.022C7.67055 30.738 9.1065 32.0161 11.6593 32.0161Z" fill="#141A17"/>
<path d="M35.4319 28.3413V20.6726H40.8566V35.3709H34.4746L28.0926 27.0632V35.3709H22.668V20.6726H29.5286L35.4319 28.3413Z" fill="#141A17"/>
<path d="M18.2008 42.5603H12.9357V52.9449H7.19189V42.5603H1.92676V38.2466H18.2008V42.5603Z" fill="#141A17"/>
<path d="M37.1866 40.3236C37.9843 41.6017 37.8247 43.3591 37.5056 44.4774C37.027 45.9153 35.5911 46.7141 34.3147 47.0336L38.1438 52.7851H31.6023L28.5709 47.5129H25.3799V52.7851H19.4766V38.2466H32.7192C34.9529 38.2466 36.3888 39.0454 37.1866 40.3236ZM28.89 44.4774C30.0068 44.4774 31.1237 44.4774 31.7619 43.8384C32.081 43.3591 32.081 42.8798 31.7619 42.4005C31.2832 41.6017 30.1664 41.6017 29.2091 41.6017H25.5394V44.4774H28.89Z" fill="#141A17"/>
<path d="M53.1423 38.2466L59.0456 52.9449H53.6209L52.5041 50.2289H45.4839L44.3671 52.9449H38.9424L44.8457 38.2466H53.1423ZM51.3872 47.0336L49.1535 41.6017L46.9199 47.0336H51.3872Z" fill="#141A17"/>
<path d="M70.8529 38.2466C73.2461 38.2466 76.2776 38.7259 78.0326 41.9212C79.1495 43.9981 78.9899 47.5129 77.7135 49.5899C75.7989 52.7851 72.2888 52.9449 70.2147 52.9449H60.1631V38.2466H70.8529ZM72.2888 47.6727C72.927 46.5544 72.927 44.7969 72.4484 43.8384C71.4911 42.2407 69.5765 42.2407 68.4597 42.2407H66.0664V49.1106H68.3001C69.2574 49.1106 71.3315 49.1106 72.2888 47.6727Z" fill="#141A17"/>
<path d="M95.9027 38.2466V41.7614H86.3297V43.5188H95.1049V47.0336H86.3297V49.2703H96.5409V52.9449H80.5859V38.2466H95.9027Z" fill="#141A17"/>
</g>
</svg>
