<svg width="40" height="40" viewBox="0 0 40 40" fill="none" xmlns="http://www.w3.org/2000/svg">
<path d="M35.9721 9.16699H4.0277C3.84352 9.16699 3.66688 9.24016 3.53665 9.37039C3.40642 9.50062 3.33325 9.67726 3.33325 9.86144V15.417C3.33325 15.6012 3.40642 15.7778 3.53665 15.908C3.66688 16.0383 3.84352 16.1114 4.0277 16.1114H4.72214V39.0281C4.72214 39.2123 4.79531 39.3889 4.92554 39.5191C5.05577 39.6494 5.23241 39.7225 5.41659 39.7225H34.5833C34.7674 39.7225 34.9441 39.6494 35.0743 39.5191C35.2045 39.3889 35.2777 39.2123 35.2777 39.0281V16.1114H35.9721C36.1563 16.1114 36.333 16.0383 36.4632 15.908C36.5934 15.7778 36.6666 15.6012 36.6666 15.417V9.86144C36.6666 9.67726 36.5934 9.50062 36.4632 9.37039C36.333 9.24016 36.1563 9.16699 35.9721 9.16699ZM6.11103 35.6253C6.77832 35.7614 7.39085 36.0907 7.87241 36.5723C8.35396 37.0538 8.68327 37.6664 8.81936 38.3337H6.11103V35.6253ZM31.1805 38.3337C31.3166 37.6664 31.6459 37.0538 32.1274 36.5723C32.609 36.0907 33.2215 35.7614 33.8888 35.6253V38.3337H31.1805ZM33.8888 34.2225C32.852 34.3733 31.8917 34.8549 31.1509 35.5958C30.4101 36.3366 29.9284 37.2969 29.7777 38.3337H10.2221C10.0714 37.2969 9.58975 36.3366 8.84893 35.5958C8.10812 34.8549 7.1478 34.3733 6.11103 34.2225V16.1114H33.8888V34.2225ZM35.2777 14.7225H4.72214V10.5559H35.2777V14.7225Z" fill="#388C67"/>
<path d="M13.75 34.8609H26.25C26.4342 34.8609 26.6108 34.7877 26.741 34.6575C26.8713 34.5273 26.9444 34.3506 26.9444 34.1664V27.222C26.9444 27.0378 26.8713 26.8612 26.741 26.731C26.6108 26.6007 26.4342 26.5276 26.25 26.5276H13.75C13.5658 26.5276 13.3892 26.6007 13.2589 26.731C13.1287 26.8612 13.0555 27.0378 13.0555 27.222V34.1664C13.0555 34.3506 13.1287 34.5273 13.2589 34.6575C13.3892 34.7877 13.5658 34.8609 13.75 34.8609ZM14.4444 27.9164H25.5555V33.472H14.4444V27.9164ZM17.2222 20.2776H22.7778C22.9619 20.2776 23.1386 20.2044 23.2688 20.0742C23.399 19.9439 23.4722 19.7673 23.4722 19.5831C23.4722 19.3989 23.399 19.2223 23.2688 19.0921C23.1386 18.9618 22.9619 18.8887 22.7778 18.8887H17.2222C17.038 18.8887 16.8614 18.9618 16.7312 19.0921C16.6009 19.2223 16.5278 19.3989 16.5278 19.5831C16.5278 19.7673 16.6009 19.9439 16.7312 20.0742C16.8614 20.2044 17.038 20.2776 17.2222 20.2776ZM15.8333 23.0553H24.1667C24.3508 23.0553 24.5275 22.9822 24.6577 22.8519C24.7879 22.7217 24.8611 22.5451 24.8611 22.3609C24.8611 22.1767 24.7879 22.0001 24.6577 21.8698C24.5275 21.7396 24.3508 21.6664 24.1667 21.6664H15.8333C15.6491 21.6664 15.4725 21.7396 15.3423 21.8698C15.212 22.0001 15.1389 22.1767 15.1389 22.3609C15.1389 22.5451 15.212 22.7217 15.3423 22.8519C15.4725 22.9822 15.6491 23.0553 15.8333 23.0553Z" fill="#388C67"/>
</svg>
