<svg width="40" height="40" viewBox="0 0 40 40" fill="none" xmlns="http://www.w3.org/2000/svg">
<g clip-path="url(#clip0_1442_88855)">
<path d="M32.7779 15.833H7.2223C7.07496 15.833 6.93365 15.8915 6.82947 15.9957C6.72528 16.0999 6.66675 16.2412 6.66675 16.3886V20.833C6.66675 20.9803 6.72528 21.1217 6.82947 21.2258C6.93365 21.33 7.07496 21.3886 7.2223 21.3886H7.77786V39.7219C7.77786 39.8692 7.83639 40.0105 7.94058 40.1147C8.04476 40.2189 8.18607 40.2775 8.33341 40.2775H31.6667C31.8141 40.2775 31.9554 40.2189 32.0596 40.1147C32.1638 40.0105 32.2223 39.8692 32.2223 39.7219V21.3886H32.7779C32.9252 21.3886 33.0665 21.33 33.1707 21.2258C33.2749 21.1217 33.3334 20.9803 33.3334 20.833V16.3886C33.3334 16.2412 33.2749 16.0999 33.1707 15.9957C33.0665 15.8915 32.9252 15.833 32.7779 15.833ZM8.88897 36.9997C9.4228 37.1085 9.91283 37.372 10.2981 37.7572C10.6833 38.1425 10.9468 38.6325 11.0556 39.1663H8.88897V36.9997ZM28.9445 39.1663C29.0534 38.6325 29.3168 38.1425 29.7021 37.7572C30.0873 37.372 30.5774 37.1085 31.1112 36.9997V39.1663H28.9445ZM31.1112 35.8775C30.2818 35.998 29.5135 36.3834 28.9209 36.976C28.3282 37.5687 27.9429 38.3369 27.8223 39.1663H12.1779C12.0573 38.3369 11.6719 37.5687 11.0793 36.976C10.4866 36.3834 9.71838 35.998 8.88897 35.8775V21.3886H31.1112V35.8775ZM32.2223 20.2775H7.77786V16.9441H32.2223V20.2775Z" fill="#388C67"/>
<path d="M14.9999 36.3891H24.9999C25.1472 36.3891 25.2885 36.3306 25.3927 36.2264C25.4969 36.1222 25.5554 35.9809 25.5554 35.8336V30.278C25.5554 30.1307 25.4969 29.9893 25.3927 29.8852C25.2885 29.781 25.1472 29.7224 24.9999 29.7224H14.9999C14.8525 29.7224 14.7112 29.781 14.6071 29.8852C14.5029 29.9893 14.4443 30.1307 14.4443 30.278V35.8336C14.4443 35.9809 14.5029 36.1222 14.6071 36.2264C14.7112 36.3306 14.8525 36.3891 14.9999 36.3891ZM15.5554 30.8336H24.4443V35.278H15.5554V30.8336ZM17.7777 24.7224H22.2221C22.3695 24.7224 22.5108 24.6639 22.615 24.5597C22.7191 24.4555 22.7777 24.3142 22.7777 24.1669C22.7777 24.0195 22.7191 23.8782 22.615 23.774C22.5108 23.6699 22.3695 23.6113 22.2221 23.6113H17.7777C17.6303 23.6113 17.489 23.6699 17.3848 23.774C17.2806 23.8782 17.2221 24.0195 17.2221 24.1669C17.2221 24.3142 17.2806 24.4555 17.3848 24.5597C17.489 24.6639 17.6303 24.7224 17.7777 24.7224ZM16.6666 26.9447H23.3332C23.4806 26.9447 23.6219 26.8861 23.7261 26.7819C23.8302 26.6778 23.8888 26.5364 23.8888 26.3891C23.8888 26.2418 23.8302 26.1005 23.7261 25.9963C23.6219 25.8921 23.4806 25.8336 23.3332 25.8336H16.6666C16.5192 25.8336 16.3779 25.8921 16.2737 25.9963C16.1695 26.1005 16.111 26.2418 16.111 26.3891C16.111 26.5364 16.1695 26.6778 16.2737 26.7819C16.3779 26.8861 16.5192 26.9447 16.6666 26.9447Z" fill="#388C67"/>
</g>
<defs>
<clipPath id="clip0_1442_88855">
<rect width="40" height="40" fill="white"/>
</clipPath>
</defs>
</svg>
