<svg width="40" height="40" viewBox="0 0 40 40" fill="none" xmlns="http://www.w3.org/2000/svg">
<path d="M34.375 12.5H5.625C5.45924 12.5 5.30027 12.5658 5.18306 12.6831C5.06585 12.8003 5 12.9592 5 13.125V18.125C5 18.2908 5.06585 18.4497 5.18306 18.5669C5.30027 18.6842 5.45924 18.75 5.625 18.75H6.25V39.375C6.25 39.5408 6.31585 39.6997 6.43306 39.8169C6.55027 39.9342 6.70924 40 6.875 40H33.125C33.2908 40 33.4497 39.9342 33.5669 39.8169C33.6842 39.6997 33.75 39.5408 33.75 39.375V18.75H34.375C34.5408 18.75 34.6997 18.6842 34.8169 18.5669C34.9342 18.4497 35 18.2908 35 18.125V13.125C35 12.9592 34.9342 12.8003 34.8169 12.6831C34.6997 12.5658 34.5408 12.5 34.375 12.5ZM7.5 36.3125C8.10056 36.435 8.65184 36.7314 9.08524 37.1648C9.51864 37.5982 9.81502 38.1494 9.9375 38.75H7.5V36.3125ZM30.0625 38.75C30.185 38.1494 30.4814 37.5982 30.9148 37.1648C31.3482 36.7314 31.8994 36.435 32.5 36.3125V38.75H30.0625ZM32.5 35.05C31.5669 35.1857 30.7026 35.6192 30.0359 36.2859C29.3692 36.9526 28.9357 37.8169 28.8 38.75H11.2C11.0643 37.8169 10.6308 36.9526 9.96411 36.2859C9.29738 35.6192 8.43309 35.1857 7.5 35.05V18.75H32.5V35.05ZM33.75 17.5H6.25V13.75H33.75V17.5Z" fill="#388C67"/>
<path d="M14.375 35.625H25.625C25.7908 35.625 25.9497 35.5592 26.0669 35.4419C26.1842 35.3247 26.25 35.1658 26.25 35V28.75C26.25 28.5842 26.1842 28.4253 26.0669 28.3081C25.9497 28.1908 25.7908 28.125 25.625 28.125H14.375C14.2092 28.125 14.0503 28.1908 13.9331 28.3081C13.8158 28.4253 13.75 28.5842 13.75 28.75V35C13.75 35.1658 13.8158 35.3247 13.9331 35.4419C14.0503 35.5592 14.2092 35.625 14.375 35.625ZM15 29.375H25V34.375H15V29.375ZM17.5 22.5H22.5C22.6658 22.5 22.8247 22.4342 22.9419 22.3169C23.0592 22.1997 23.125 22.0408 23.125 21.875C23.125 21.7092 23.0592 21.5503 22.9419 21.4331C22.8247 21.3158 22.6658 21.25 22.5 21.25H17.5C17.3342 21.25 17.1753 21.3158 17.0581 21.4331C16.9408 21.5503 16.875 21.7092 16.875 21.875C16.875 22.0408 16.9408 22.1997 17.0581 22.3169C17.1753 22.4342 17.3342 22.5 17.5 22.5ZM16.25 25H23.75C23.9158 25 24.0747 24.9342 24.1919 24.8169C24.3092 24.6997 24.375 24.5408 24.375 24.375C24.375 24.2092 24.3092 24.0503 24.1919 23.9331C24.0747 23.8158 23.9158 23.75 23.75 23.75H16.25C16.0842 23.75 15.9253 23.8158 15.8081 23.9331C15.6908 24.0503 15.625 24.2092 15.625 24.375C15.625 24.5408 15.6908 24.6997 15.8081 24.8169C15.9253 24.9342 16.0842 25 16.25 25Z" fill="#388C67"/>
</svg>
