<svg width="40" height="40" viewBox="0 0 40 40" fill="none" xmlns="http://www.w3.org/2000/svg">
<path d="M27.5 16.6667H12.5C12.04 16.6667 11.6666 16.2933 11.6666 15.8333V0.833333C11.6666 0.373333 12.04 0 12.5 0H27.5C27.96 0 28.3333 0.373333 28.3333 0.833333V15.8333C28.3333 16.2933 27.96 16.6667 27.5 16.6667ZM13.3333 15H26.6666V1.66667H13.3333V15Z" fill="#388C67"/>
<path d="M22.5 6.66667H17.5C17.04 6.66667 16.6667 6.29333 16.6667 5.83333V0.833333C16.6667 0.373333 17.04 0 17.5 0H22.5C22.96 0 23.3334 0.373333 23.3334 0.833333V5.83333C23.3334 6.29333 22.96 6.66667 22.5 6.66667ZM18.3334 5H21.6667V1.66667H18.3334V5ZM20 31.6667H4.16671C3.70671 31.6667 3.33337 31.2933 3.33337 30.8333V15.8333C3.33337 15.3733 3.70671 15 4.16671 15H20C20.46 15 20.8334 15.3733 20.8334 15.8333V30.8333C20.8334 31.2933 20.46 31.6667 20 31.6667ZM5.00004 30H19.1667V16.6667H5.00004V30Z" fill="#388C67"/>
<path d="M14.1667 21.6667H9.16671C8.70671 21.6667 8.33337 21.2933 8.33337 20.8333V15.8333C8.33337 15.3733 8.70671 15 9.16671 15H14.1667C14.6267 15 15 15.3733 15 15.8333V20.8333C15 21.2933 14.6267 21.6667 14.1667 21.6667ZM10 20H13.3334V16.6667H10V20ZM35.8334 31.6667H20C19.54 31.6667 19.1667 31.2933 19.1667 30.8333V15.8333C19.1667 15.3733 19.54 15 20 15H35.8334C36.2934 15 36.6667 15.3733 36.6667 15.8333V30.8333C36.6667 31.2933 36.2934 31.6667 35.8334 31.6667ZM20.8334 30H35V16.6667H20.8334V30Z" fill="#388C67"/>
<path d="M30.8333 21.6667H25.8333C25.3733 21.6667 25 21.2933 25 20.8333V15.8333C25 15.3733 25.3733 15 25.8333 15H30.8333C31.2933 15 31.6667 15.3733 31.6667 15.8333V20.8333C31.6667 21.2933 31.2933 21.6667 30.8333 21.6667ZM26.6667 20H30V16.6667H26.6667V20ZM39.1667 40H32.5C32.04 40 31.6667 39.6267 31.6667 39.1667V36.6667H25V39.1667C25 39.6267 24.6267 40 24.1667 40H15.8333C15.3733 40 15 39.6267 15 39.1667V36.6667H8.33333V39.1667C8.33333 39.6267 7.96 40 7.5 40H0.833333C0.373333 40 0 39.6267 0 39.1667V30.8333C0 30.3733 0.373333 30 0.833333 30H39.1667C39.6267 30 40 30.3733 40 30.8333V39.1667C40 39.6267 39.6267 40 39.1667 40ZM33.3333 38.3333H38.3333V31.6667H1.66667V38.3333H6.66667V35.8333C6.66667 35.3733 7.04 35 7.5 35H15.8333C16.2933 35 16.6667 35.3733 16.6667 35.8333V38.3333H23.3333V35.8333C23.3333 35.3733 23.7067 35 24.1667 35H32.5C32.96 35 33.3333 35.3733 33.3333 35.8333V38.3333Z" fill="#388C67"/>
</svg>
