<svg width="70" height="70" viewBox="0 0 70 70" fill="none" xmlns="http://www.w3.org/2000/svg">
<path d="M32.9492 39.587C32.9492 40.4347 32.9492 41.2892 32.9492 42.1369C32.9492 44.1808 32.9492 46.2179 32.9492 48.2619C32.9492 50.7365 32.9492 53.2042 32.9492 55.6788C32.9492 57.8185 32.9492 59.9581 32.9492 62.0978C32.9492 63.1437 32.915 64.1896 32.9492 65.2355C32.9492 65.2492 32.9492 65.2628 32.9492 65.2765C33.9746 64.6886 35.0068 64.0939 36.0322 63.506C35.2256 63.0822 34.4189 62.6515 33.6123 62.2277C31.6777 61.2023 29.7431 60.1837 27.8017 59.1583C25.457 57.921 23.1123 56.6837 20.7744 55.4464C18.7441 54.3732 16.7207 53.3068 14.6904 52.2335C13.6992 51.714 12.7217 51.1535 11.7168 50.6613C11.7031 50.6544 11.6894 50.6476 11.6758 50.6408C12.0176 51.2286 12.3525 51.8234 12.6943 52.4113C12.6943 50.9757 12.6943 49.547 12.6943 48.1115C12.6943 45.8419 12.6943 43.5656 12.6943 41.296C12.6943 40.7697 12.6943 40.2433 12.6943 39.7169C11.6689 40.3048 10.6367 40.8995 9.61133 41.4874C11.5459 42.506 13.4805 43.5314 15.415 44.5499C18.4707 46.1632 21.5332 47.7765 24.5889 49.3898C25.293 49.7589 25.9902 50.1281 26.6943 50.504C27.1113 50.7228 27.5351 50.8117 28 50.7501C28.4033 50.6954 28.9092 50.5245 29.1758 50.1827C29.9892 49.1574 30.8095 48.132 31.623 47.1066C32.9287 45.4591 34.2412 43.8117 35.5468 42.1642C35.8476 41.7882 36.1484 41.4122 36.4492 41.0294C36.7978 40.5851 37.0508 40.1681 37.0508 39.5802C37.0508 39.0744 36.8252 38.4796 36.4492 38.131C36.0595 37.7755 35.5468 37.5089 35 37.5294C34.4941 37.5499 33.8789 37.714 33.5508 38.131C32.7373 39.1564 31.917 40.1818 31.1035 41.2072C29.7978 42.8546 28.4853 44.5021 27.1797 46.1495C26.8789 46.5255 26.5781 46.9015 26.2773 47.2843C27.1045 47.1749 27.9316 47.0724 28.7656 46.963C26.831 45.9445 24.8965 44.9191 22.9619 43.9005C19.9062 42.2872 16.8437 40.674 13.7881 39.0607C13.084 38.6915 12.3867 38.3224 11.6826 37.9464C10.3223 37.2286 8.59961 38.1105 8.59961 39.7169C8.59961 41.1525 8.59961 42.5812 8.59961 44.0167C8.59961 46.2863 8.59961 48.5626 8.59961 50.8322C8.59961 51.3585 8.59961 51.8849 8.59961 52.4113C8.59961 53.1085 8.98242 53.8468 9.61816 54.1818C10.4248 54.6056 11.2314 55.0363 12.0381 55.4601C13.9727 56.4855 15.9072 57.504 17.8486 58.5294C20.1933 59.7667 22.5381 61.004 24.876 62.2413C26.9062 63.3146 28.9297 64.381 30.9599 65.4542C31.9511 65.9738 32.9355 66.5138 33.9336 67.0265C33.9472 67.0333 33.9609 67.0402 33.9746 67.047C35.3349 67.7648 37.0576 66.883 37.0576 65.2765C37.0576 64.4289 37.0576 63.5744 37.0576 62.7267C37.0576 60.6828 37.0576 58.6456 37.0576 56.6017C37.0576 54.1271 37.0576 51.6593 37.0576 49.1847C37.0576 47.0451 37.0576 44.9054 37.0576 42.7658C37.0576 41.7199 37.0781 40.674 37.0576 39.6281C37.0576 39.6144 37.0576 39.6007 37.0576 39.587C37.0576 38.5138 36.1142 37.4884 35.0068 37.5363C33.8857 37.5909 32.9492 38.4386 32.9492 39.587Z" fill="#388C67"/>
<path d="M57.305 39.7238C57.305 41.1593 57.305 42.588 57.305 44.0236C57.305 46.2931 57.305 48.5695 57.305 50.839C57.305 51.3654 57.305 51.8917 57.305 52.4181C57.6468 51.8302 57.9817 51.2355 58.3235 50.6476C57.5169 51.0714 56.7103 51.5021 55.9036 51.9259C53.9691 52.9513 52.0345 53.9699 50.0931 54.9953C47.7484 56.2326 45.4036 57.4699 43.0657 58.7072C41.0355 59.7804 39.012 60.8468 36.9818 61.9201C35.9906 62.4396 34.9857 62.9386 34.0081 63.4923C33.9945 63.4992 33.9808 63.506 33.9671 63.5128C34.9925 64.1007 36.0247 64.6954 37.0501 65.2833C37.0501 64.4357 37.0501 63.5812 37.0501 62.7335C37.0501 60.6896 37.0501 58.6525 37.0501 56.6085C37.0501 54.1339 37.0501 51.6662 37.0501 49.1915C37.0501 47.0519 37.0501 44.9122 37.0501 42.7726C37.0501 41.7267 37.0843 40.6808 37.0501 39.6349C37.0501 39.6212 37.0501 39.6076 37.0501 39.5939C35.8812 40.0792 34.7191 40.5578 33.5501 41.0431C34.3636 42.0685 35.1839 43.0939 35.9974 44.1193C37.3031 45.7667 38.6156 47.4142 39.9212 49.0617C40.222 49.4376 40.5228 49.8136 40.8236 50.1964C41.0902 50.5382 41.596 50.7091 41.9993 50.7638C42.4642 50.8253 42.888 50.7433 43.305 50.5177C45.2396 49.4992 47.1741 48.4738 49.1087 47.4552C52.1644 45.8419 55.2269 44.2287 58.2825 42.6154C58.9866 42.2462 59.6839 41.8771 60.388 41.5011C61.3382 41.0021 61.7073 39.6007 61.1263 38.6984C60.5042 37.7345 59.3353 37.4269 58.3235 37.9601C56.389 38.9787 54.4544 40.004 52.5198 41.0226C49.4642 42.6359 46.4017 44.2492 43.346 45.8624C42.6419 46.2316 41.9447 46.6007 41.2406 46.9767C42.0677 47.0861 42.8948 47.1886 43.7288 47.298C42.9154 46.2726 42.095 45.2472 41.2816 44.2218C39.9759 42.5744 38.6634 40.9269 37.3577 39.2794C37.057 38.9035 36.7562 38.5275 36.4554 38.1447C36.2572 37.8986 35.847 37.7003 35.5531 37.6183C35.1087 37.4953 34.637 37.5431 34.2201 37.7208C33.4749 38.0353 32.9622 38.7736 32.9622 39.5939C32.9622 40.4415 32.9622 41.296 32.9622 42.1437C32.9622 44.1876 32.9622 46.2247 32.9622 48.2687C32.9622 50.7433 32.9622 53.2111 32.9622 55.6857C32.9622 57.8253 32.9622 59.965 32.9622 62.1046C32.9622 63.1505 32.9417 64.1964 32.9622 65.2423C32.9622 65.256 32.9622 65.2697 32.9622 65.2833C32.9622 66.8898 34.6917 67.7716 36.0452 67.0538C36.8519 66.63 37.6585 66.1994 38.4652 65.7755C40.3997 64.7501 42.3343 63.7316 44.2757 62.7062C46.6204 61.4689 48.9652 60.2316 51.303 58.9943C53.3333 57.921 55.3567 56.8546 57.387 55.7814C58.3782 55.2619 59.3831 54.7628 60.3606 54.2091C60.3743 54.2023 60.388 54.1954 60.4017 54.1886C61.0306 53.8537 61.4202 53.1154 61.4202 52.4181C61.4202 50.9826 61.4202 49.5538 61.4202 48.1183C61.4202 45.8488 61.4202 43.5724 61.4202 41.3029C61.4202 40.7765 61.4202 40.2501 61.4202 39.7238C61.4202 38.6505 60.4769 37.6251 59.3694 37.673C58.2415 37.7277 57.305 38.5753 57.305 39.7238Z" fill="#388C67"/>
<path d="M58.3181 24.958C57.5115 25.3818 56.7048 25.8125 55.8982 26.2363C53.9636 27.2617 52.0291 28.2803 50.0876 29.3057C47.7429 30.543 45.3982 31.7803 43.0603 33.0176C41.03 34.0908 39.0066 35.1572 36.9763 36.2305C35.9851 36.75 34.9802 37.249 34.0027 37.8027C33.989 37.8096 33.9753 37.8164 33.9617 37.8232C34.6521 37.8232 35.3425 37.8232 36.033 37.8232C35.2263 37.3994 34.4197 36.9687 33.613 36.5449C31.6785 35.5195 29.7439 34.501 27.8025 33.4756C25.4578 32.2383 23.113 31.001 20.7751 29.7637C18.7449 28.6904 16.7214 27.624 14.6912 26.5508C13.7 26.0312 12.7224 25.4775 11.7175 24.9785C11.7039 24.9717 11.6902 24.9648 11.6765 24.958C11.6765 26.1406 11.6765 27.3164 11.6765 28.499C12.4832 28.0752 13.2898 27.6514 14.0964 27.2207C16.031 26.2021 17.9656 25.1768 19.907 24.1582C22.2517 22.9209 24.5964 21.6836 26.9343 20.4531C28.9646 19.3867 30.988 18.3135 33.0183 17.2471C34.0095 16.7275 35.0144 16.2285 35.9919 15.6816C36.0056 15.6748 36.0193 15.668 36.033 15.6611C35.3425 15.6611 34.6521 15.6611 33.9617 15.6611C34.7683 16.085 35.575 16.5088 36.3816 16.9395C38.3162 17.958 40.2507 18.9834 42.1921 20.002C44.5369 21.2393 46.8816 22.4766 49.2195 23.707C51.2498 24.7734 53.2732 25.8467 55.3035 26.9131C56.2947 27.4326 57.2791 27.9727 58.2771 28.4785C58.2908 28.4854 58.3044 28.4922 58.3181 28.499C59.2683 28.998 60.5945 28.7725 61.1208 27.7607C61.6199 26.8105 61.4011 25.4912 60.3826 24.958C59.5691 24.5273 58.7556 24.1035 57.9421 23.6729C55.9939 22.6475 54.0457 21.6152 52.0974 20.5898C49.7458 19.3457 47.3875 18.1084 45.0359 16.8643C43.0125 15.7979 40.9822 14.7246 38.9587 13.6582C37.9949 13.1455 37.0378 12.6123 36.0603 12.127C35.3357 11.7715 34.6384 11.7715 33.9275 12.127C33.8181 12.1816 33.7156 12.2363 33.6062 12.2979C33.1072 12.5576 32.615 12.8242 32.116 13.084C30.2839 14.0547 28.4451 15.0186 26.613 15.9893C24.2751 17.2266 21.9304 18.457 19.5925 19.6943C17.4734 20.8086 15.3611 21.9229 13.2419 23.0439C12.0867 23.6523 10.9246 24.2676 9.76929 24.876C9.7146 24.9033 9.65991 24.9307 9.60522 24.9648C8.27222 25.6689 8.27222 27.8018 9.60522 28.5059C10.4187 28.9365 11.2322 29.3672 12.0457 29.791C13.9939 30.8232 15.9421 31.8486 17.8904 32.8809C20.2419 34.125 22.6003 35.3691 24.9519 36.6133C26.9753 37.6865 29.0056 38.7529 31.0291 39.8262C31.9929 40.3389 32.95 40.8721 33.9275 41.3574C34.6453 41.7197 35.3494 41.7129 36.0603 41.3574C36.1697 41.3027 36.2722 41.248 36.3816 41.1865C36.8806 40.9268 37.3728 40.6602 37.8718 40.4004C39.7039 39.4297 41.5427 38.459 43.3748 37.4951C45.7126 36.2578 48.0574 35.0205 50.3953 33.7832C52.5144 32.6689 54.6267 31.5479 56.7458 30.4336C57.9011 29.8252 59.0632 29.21 60.2185 28.6016C60.2732 28.5742 60.3279 28.5469 60.3826 28.5127C61.3328 28.0137 61.7019 26.6123 61.1208 25.71C60.5056 24.7256 59.3367 24.418 58.3181 24.958Z" fill="#388C67"/>
<path d="M33.552 38.1377C32.7385 39.1631 31.9182 40.1885 31.1047 41.2139C29.7991 42.8613 28.4866 44.5088 27.1809 46.1563C26.8801 46.5322 26.5793 46.9082 26.2786 47.291C27.1057 47.1817 27.9329 47.0791 28.7668 46.9697C27.6868 46.4024 26.6135 45.835 25.5334 45.2608C23.2844 44.0713 21.0286 42.8819 18.7795 41.6924C16.8313 40.6602 14.8762 39.6348 12.928 38.6026C12.094 38.1582 11.26 37.7207 10.4192 37.2764C8.45727 36.2442 6.50219 35.2051 4.54028 34.1729C4.49926 34.1524 4.45141 34.125 4.4104 34.1045C4.54711 35.1777 4.68383 36.251 4.82739 37.3242C5.64086 36.2988 6.46118 35.2735 7.27465 34.2412C8.58032 32.5938 9.89282 30.9463 11.1985 29.2988C11.4993 28.9229 11.8 28.5401 12.1008 28.1641C11.2737 28.2735 10.4465 28.376 9.61254 28.4854C10.4192 28.9092 11.2258 29.3399 12.0325 29.7637C13.967 30.7891 15.9016 31.8076 17.843 32.833C20.1877 34.0703 22.5325 35.3076 24.8704 36.5449C26.9006 37.6182 28.9241 38.6846 30.9543 39.7578C31.9456 40.2842 32.9299 40.8174 33.928 41.3301C33.9416 41.3369 33.9553 41.3438 33.969 41.3506C34.9192 41.8496 36.2454 41.624 36.7717 40.6123C37.2707 39.6621 37.052 38.3428 36.0334 37.8096C35.2268 37.3858 34.4202 36.9551 33.6135 36.5313C31.679 35.5059 29.7444 34.4873 27.803 33.4619C25.4582 32.2246 23.1135 30.9873 20.7756 29.75C18.7454 28.6768 16.7219 27.6104 14.6916 26.5371C13.7004 26.0176 12.7229 25.4707 11.718 24.9649C11.7043 24.958 11.6907 24.9512 11.677 24.9443C11.26 24.7256 10.8362 24.6367 10.3713 24.6983C9.96801 24.7529 9.46215 24.9238 9.19555 25.2656C8.38208 26.291 7.56176 27.3164 6.74829 28.3486C5.44262 29.9961 4.13012 31.6436 2.82446 33.291C2.52368 33.667 2.2229 34.0498 1.92211 34.4258C1.49829 34.959 1.26586 35.458 1.35473 36.1485C1.43676 36.7569 1.77172 37.3516 2.33227 37.6455C4.08227 38.5684 5.82543 39.4912 7.57543 40.4141C8.51196 40.9131 9.45532 41.4053 10.3918 41.9043C12.1965 42.8613 14.0081 43.8115 15.8127 44.7686C18.1096 45.9785 20.3997 47.1885 22.6965 48.4053C24.0022 49.0957 25.3079 49.8135 26.6272 50.4766C26.6477 50.4834 26.6682 50.4971 26.6887 50.5108C27.1057 50.7295 27.5295 50.8184 27.9944 50.7569C28.3977 50.7022 28.9036 50.5313 29.1702 50.1895C29.9836 49.1641 30.804 48.1387 31.6174 47.1133C32.9231 45.4658 34.2356 43.8184 35.5413 42.1709C35.842 41.7949 36.1428 41.419 36.4436 41.0361C36.7922 40.5918 37.0452 40.1748 37.0452 39.5869C37.0452 39.0811 36.8196 38.4863 36.4436 38.1377C36.0539 37.7822 35.5413 37.5156 34.9944 37.5361C34.4954 37.5635 33.8801 37.7207 33.552 38.1377Z" fill="#388C67"/>
<path d="M65.5913 34.1111C63.8413 35.0339 62.0981 35.9568 60.3481 36.8796C59.4116 37.3786 58.4682 37.8708 57.5317 38.3699C55.727 39.3269 53.9155 40.2771 52.1108 41.2341C49.8139 42.4441 47.5239 43.654 45.227 44.8708C43.9214 45.5613 42.5883 46.2243 41.2964 46.9421C41.2758 46.9558 41.2553 46.9626 41.2348 46.9763C42.062 47.0857 42.8891 47.1882 43.7231 47.2976C42.9096 46.2722 42.0893 45.2468 41.2759 44.2214C39.9702 42.574 38.6577 40.9265 37.352 39.279C37.0512 38.9031 36.7505 38.5271 36.4497 38.1443C36.313 39.2175 36.1762 40.2908 36.0327 41.364C36.8393 40.9402 37.646 40.5095 38.4526 40.0857C40.3872 39.0603 42.3217 38.0417 44.2632 37.0163C46.6079 35.779 48.9526 34.5417 51.2905 33.3044C53.3208 32.2312 55.3442 31.1648 57.3745 30.0915C58.3657 29.572 59.3706 29.073 60.3481 28.5193C60.3618 28.5124 60.3755 28.5056 60.3891 28.4988C59.562 28.3894 58.7348 28.2869 57.9008 28.1775C58.7143 29.2029 59.5346 30.2283 60.3481 31.2605C61.6538 32.9079 62.9663 34.5554 64.2719 36.2029C64.5727 36.5788 64.8735 36.9617 65.1743 37.3376C65.4819 37.7204 66.1587 37.9392 66.6235 37.9392C67.1294 37.9392 67.7241 37.7136 68.0727 37.3376C68.4282 36.948 68.6948 36.4353 68.6743 35.8884C68.6469 35.3074 68.4282 34.8904 68.0727 34.4392C67.2592 33.4138 66.4389 32.3884 65.6255 31.3562C64.3198 29.7087 63.0073 28.0613 61.7016 26.4138C61.4008 26.0378 61.1001 25.655 60.7993 25.2791C60.5327 24.9373 60.0268 24.7664 59.6235 24.7117C59.1587 24.6501 58.7348 24.7322 58.3178 24.9578C57.5112 25.3816 56.7046 25.8123 55.8979 26.2361C53.9634 27.2615 52.0288 28.28 50.0874 29.3054C47.7426 30.5427 45.3979 31.78 43.06 33.0173C41.0298 34.0906 39.0063 35.157 36.976 36.2302C35.9848 36.7497 34.98 37.2488 34.0024 37.8025C33.9887 37.8093 33.9751 37.8161 33.9614 37.823C33.4009 38.1238 33.0659 38.7117 32.9839 39.3201C32.8882 40.0105 33.1274 40.5095 33.5512 41.0427C34.3647 42.0681 35.185 43.0935 35.9985 44.1189C37.3042 45.7663 38.6167 47.4138 39.9223 49.0613C40.2231 49.4372 40.5239 49.8132 40.8247 50.196C41.0913 50.5378 41.5971 50.7087 42.0005 50.7634C42.4653 50.8249 42.8891 50.7429 43.3061 50.5173C44.3862 49.9499 45.4594 49.3825 46.5395 48.8083C48.7885 47.6189 51.0444 46.4294 53.2934 45.24C55.2417 44.2077 57.1967 43.1824 59.145 42.1501C59.979 41.7058 60.813 41.2683 61.6538 40.824C63.6157 39.7917 65.5708 38.7527 67.5327 37.7204C67.5737 37.6999 67.6215 37.6726 67.6626 37.6521C68.6128 37.1531 68.9819 35.7517 68.4008 34.8494C67.7788 33.8855 66.6098 33.5779 65.5913 34.1111Z" fill="#388C67"/>
<path d="M60.3889 24.958C59.5823 24.5342 58.7756 24.1104 57.969 23.6797C56.0344 22.6611 54.0998 21.6358 52.1584 20.6172C49.8137 19.3799 47.469 18.1426 45.1311 16.9121C43.1008 15.8457 41.0774 14.7725 39.0471 13.7061C38.0559 13.1865 37.0784 12.6328 36.0735 12.1406C36.0598 12.1338 36.0461 12.127 36.0325 12.1201C36.1692 13.1934 36.3059 14.2666 36.4495 15.3399C37.2629 14.3145 38.0832 13.2891 38.8967 12.2637C40.2024 10.6162 41.5149 8.96876 42.8206 7.3213C43.1213 6.94533 43.4221 6.56935 43.7229 6.18654C42.8957 6.29591 42.0686 6.39845 41.2346 6.50783C42.0413 6.93165 42.8479 7.36232 43.6545 7.78615C45.5891 8.81154 47.5237 9.83009 49.4651 10.8555C51.8098 12.0928 54.1545 13.3301 56.4924 14.5742C58.5227 15.6475 60.5461 16.7207 62.5764 17.7871C63.5676 18.3067 64.5452 18.8672 65.55 19.3594C65.5637 19.3662 65.5774 19.3731 65.5911 19.3799C65.4543 18.3067 65.3176 17.2334 65.1741 16.1602C64.3606 17.1856 63.5403 18.2041 62.7268 19.2295C61.4211 20.8701 60.1086 22.5176 58.803 24.1582C58.5022 24.5342 58.2014 24.9102 57.9006 25.2861C57.552 25.7305 57.2991 26.1475 57.2991 26.7354C57.2991 27.2412 57.5247 27.8359 57.9006 28.1846C58.2903 28.5401 58.803 28.8067 59.3498 28.7861C59.8557 28.7656 60.4709 28.6016 60.7991 28.1846C61.6125 27.1592 62.4329 26.1406 63.2463 25.1152C64.552 23.4746 65.8645 21.8272 67.1702 20.1865C67.4709 19.8106 67.7717 19.4346 68.0725 19.0586C68.4963 18.5254 68.7287 18.0264 68.6399 17.336C68.5578 16.7276 68.2229 16.1328 67.6623 15.8389C66.8557 15.4151 66.0491 14.9844 65.2424 14.5606C63.3079 13.5352 61.3733 12.5166 59.4319 11.4912C57.0872 10.2539 54.7424 9.01661 52.4045 7.77247C50.3743 6.69923 48.3508 5.62599 46.3205 4.55958C45.3293 4.03322 44.3518 3.49318 43.3469 2.98732C43.3332 2.98048 43.3196 2.97365 43.3059 2.96681C42.8889 2.74806 42.4651 2.65919 42.0002 2.72072C41.5969 2.7754 41.0911 2.9463 40.8245 3.2881C40.011 4.31349 39.1907 5.33888 38.3772 6.36427C37.0715 8.01173 35.759 9.65919 34.4534 11.3067C34.1526 11.6826 33.8518 12.0586 33.551 12.4414C33.1272 12.9746 32.8948 13.4736 32.9836 14.1641C33.0657 14.7725 33.4006 15.3672 33.9612 15.6611C34.7678 16.085 35.5745 16.5088 36.3811 16.9395C38.3157 17.958 40.2502 18.9834 42.1916 20.002C44.5364 21.2393 46.8811 22.4766 49.219 23.707C51.2493 24.7734 53.2727 25.8467 55.303 26.9131C56.2942 27.4326 57.2786 27.9727 58.2766 28.4785C58.2903 28.4854 58.3039 28.4922 58.3176 28.499C59.2678 28.9981 60.594 28.7725 61.1204 27.7608C61.6262 26.8106 61.4006 25.4912 60.3889 24.958Z" fill="#388C67"/>
<path d="M33.9682 12.1062C33.1616 12.53 32.3549 12.9539 31.5483 13.3845C29.6137 14.4031 27.6792 15.4285 25.7378 16.447C23.393 17.6843 21.0483 18.9216 18.7104 20.1521C16.6801 21.2185 14.6567 22.2917 12.6264 23.3582C11.6352 23.8777 10.6303 24.3767 9.6528 24.9236C9.63913 24.9304 9.62546 24.9373 9.61179 24.9441C10.4389 25.0535 11.2661 25.156 12.1001 25.2654C11.2866 24.24 10.4663 23.2214 9.6528 22.196C8.34714 20.5554 7.03464 18.908 5.72898 17.2673C5.4282 16.8914 5.12741 16.5154 4.82663 16.1394C4.68991 17.2126 4.5532 18.2859 4.40964 19.3591C5.21628 18.9353 6.02292 18.5046 6.82956 18.0808C8.76413 17.0554 10.6987 16.0369 12.6401 15.0115C14.9848 13.7742 17.3296 12.5369 19.6675 11.2927C21.6977 10.2195 23.7212 9.14624 25.7514 8.07983C26.7426 7.55347 27.7475 7.06128 28.7251 6.50757C28.7387 6.50073 28.7524 6.4939 28.7661 6.48706C27.9389 6.37769 27.1118 6.27515 26.2778 6.16577C27.0913 7.19116 27.9116 8.21655 28.7251 9.24194C30.0307 10.8894 31.3432 12.5369 32.6489 14.1843C32.9497 14.5603 33.2505 14.9363 33.5512 15.3191C33.8589 15.7019 34.5356 15.9207 35.0005 15.9207C35.5063 15.9207 36.101 15.6951 36.4497 15.3191C36.8051 14.9294 37.0717 14.4167 37.0512 13.8699C37.0239 13.2957 36.8051 12.8718 36.4497 12.4207C35.6362 11.3953 34.8159 10.3699 34.0024 9.34448C32.6967 7.69702 31.3842 6.04956 30.0786 4.4021C29.7778 4.02612 29.477 3.65015 29.1762 3.26733C28.9096 2.92554 28.4038 2.75464 28.0005 2.69995C27.5356 2.63843 27.1118 2.72046 26.6948 2.94604C25.8882 3.36987 25.0815 3.80054 24.2749 4.22437C22.3403 5.24976 20.4057 6.26831 18.4643 7.2937C16.1196 8.53101 13.7749 9.76831 11.437 11.0125C9.40671 12.0857 7.38327 13.1589 5.353 14.2253C4.36179 14.7517 3.35691 15.2439 2.37937 15.7976C2.3657 15.8044 2.35202 15.8113 2.33835 15.8181C1.7778 16.1189 1.44284 16.7068 1.36081 17.3152C1.26511 18.0056 1.50437 18.5046 1.9282 19.0378C2.74167 20.0632 3.56198 21.0818 4.37546 22.1072C5.68112 23.7478 6.99362 25.3953 8.29929 27.0359C8.60007 27.4119 8.90085 27.7878 9.20163 28.1638C9.47507 28.5056 9.97409 28.6765 10.3774 28.7312C10.8423 28.7927 11.2592 28.7107 11.6831 28.4851C12.4897 28.0613 13.2964 27.6375 14.103 27.2068C16.0376 26.1882 17.9721 25.1628 19.9135 24.1443C22.2583 22.907 24.603 21.6697 26.9409 20.4392C28.9712 19.3728 30.9946 18.2996 33.0249 17.2332C34.0161 16.7136 35.021 16.2146 35.9985 15.6677C36.0122 15.6609 36.0258 15.6541 36.0395 15.6472C36.9897 15.1482 37.3589 13.7468 36.7778 12.8445C36.1489 11.8738 34.9799 11.573 33.9682 12.1062Z" fill="#388C67"/>
</svg>
