<svg width="70" height="70" viewBox="0 0 70 70" fill="none" xmlns="http://www.w3.org/2000/svg">
<path d="M70 13.5756C70 13.1514 69.6818 12.7271 69.2576 12.6211L35.9545 0.105913C35.7424 -0.000147965 35.4242 -0.000147965 35.2121 0.105913L0.742424 12.6211C0.318182 12.7271 0 13.1514 0 13.5756V23.5453C0 23.9696 0.318182 24.3938 0.636364 24.4999L2.22727 25.1362V55.8938C2.22727 56.318 2.43939 56.7423 2.86364 56.8483L35.1061 69.8938C35.3182 69.9999 35.6364 69.9999 35.8485 69.8938L66.9242 57.9089C67.3485 57.8029 67.5606 57.3786 67.5606 56.9544V25.4544L69.2576 24.818C69.6818 24.6059 69.8939 24.2877 69.8939 23.8635V13.5756H70ZM35.5303 2.22712L65.9697 13.6817C54.303 18.3483 46.6667 21.4241 35.5303 25.8786L4.0303 13.6817L35.5303 2.22712ZM2.12121 15.1665L34.4697 27.7877V35.318L2.12121 22.9089V15.1665ZM4.34848 25.9847L34.4697 37.5453V67.3483L4.34848 55.1514V25.9847ZM65.5454 56.212L36.5909 67.3483V37.6514L65.5454 26.1968V56.212ZM36.5909 35.4241V27.7877L67.8788 15.1665V23.015C65.2273 24.0756 39.7727 34.1514 36.5909 35.4241Z" fill="#388C67"/>
<path d="M24.5659 44.8297C24.137 44.7344 23.7121 45.0048 23.6168 45.4336C23.5215 45.8624 23.7919 46.2874 24.2208 46.3826L26.6424 46.9208L26.0881 49.6926C26.0018 50.1234 26.2813 50.5425 26.712 50.6286C27.1428 50.7148 27.5619 50.4353 27.6481 50.0046L28.3551 46.4692C28.44 46.045 28.1701 45.6306 27.7477 45.5367L24.5659 44.8297Z" fill="#388C67"/>
<path d="M12.3037 46.1903C12.0407 45.8385 11.5422 45.7664 11.1903 46.0295C10.8385 46.2925 10.7664 46.791 11.0295 47.1428C12.6298 49.2835 15.6769 50.6439 19.0649 50.6439C21.7842 50.6439 24.2648 49.7708 25.9672 48.3353C26.3031 48.0522 26.3458 47.5503 26.0626 47.2144C25.7795 46.8786 25.2776 46.8359 24.9417 47.119C23.5651 48.2798 21.463 49.0529 19.0649 49.0529C16.0521 49.0529 13.5353 47.8377 12.3037 46.1903Z" fill="#388C67"/>
</svg>
