<svg width="70" height="70" viewBox="0 0 70 70" fill="none" xmlns="http://www.w3.org/2000/svg">
<path d="M41.5625 42.6562C43.3747 42.6562 44.8438 41.1872 44.8438 39.375C44.8438 37.5628 43.3747 36.0938 41.5625 36.0938C39.7503 36.0938 38.2812 37.5628 38.2812 39.375C38.2812 41.1872 39.7503 42.6562 41.5625 42.6562Z" fill="#388C67"/>
<path d="M28.4375 42.6562C30.2497 42.6562 31.7188 41.1872 31.7188 39.375C31.7188 37.5628 30.2497 36.0938 28.4375 36.0938C26.6253 36.0938 25.1562 37.5628 25.1562 39.375C25.1562 41.1872 26.6253 42.6562 28.4375 42.6562Z" fill="#388C67"/>
<path d="M43.4527 30.625H26.3705L25.0449 19.6875H45.9377L43.4527 30.625Z" stroke="#388C67" stroke-width="2" stroke-miterlimit="10" stroke-linecap="round" stroke-linejoin="round"/>
<path d="M21.875 15.3125H24.5722L25.1738 20.7462" stroke="#388C67" stroke-width="2" stroke-miterlimit="10" stroke-linecap="round" stroke-linejoin="round"/>
<path d="M61.25 50.3125H8.75C7.5425 50.3125 6.5625 49.3325 6.5625 48.125V8.75C6.5625 7.5425 7.5425 6.5625 8.75 6.5625H61.25C62.4575 6.5625 63.4375 7.5425 63.4375 8.75V48.125C63.4375 49.3325 62.4575 50.3125 61.25 50.3125ZM43.75 63.4375H26.25C30.625 59.0625 30.625 50.3125 30.625 50.3125H39.375C39.375 50.3125 39.375 59.0625 43.75 63.4375Z" stroke="#388C67" stroke-width="2" stroke-miterlimit="10" stroke-linecap="round" stroke-linejoin="round"/>
</svg>
