<svg width="70" height="70" viewBox="0 0 70 70" fill="none" xmlns="http://www.w3.org/2000/svg">
<g clip-path="url(#clip0_2569_19861)">
<path d="M54.1411 64.8776L48.6723 14.7013L42.5266 13.8C42.543 10.0331 42.1448 0.572199 37.9695 0.0236836C37.76 -0.0173321 36.932 -0.0884258 36.0986 0.658058C34.3902 2.19095 33.9335 6.53915 34.7265 12.791L31.355 12.3546C30.4521 4.93079 31.3167 2.53931 32.2103 1.85189C32.5991 1.5522 33.1105 1.52814 33.7749 1.77861L34.1703 0.763605C32.8737 0.274152 32.0178 0.619777 31.53 0.99548C29.4021 2.63228 29.7264 8.04087 30.2224 12.2075L27.4208 11.8444L27.5006 13.3827L22.3901 12.4695C22.1247 12.4221 21.8512 12.4733 21.6209 12.6134C21.3906 12.7534 21.2194 12.9728 21.1394 13.2302V13.2313C21.1279 13.269 21.1126 13.3056 21.1055 13.3445C21.1005 13.3691 21.1027 13.3926 21.0995 13.4167C21.0984 13.4265 21.094 13.4358 21.0929 13.4456L15.8648 64.7655C15.8489 64.9227 15.8681 65.0816 15.9208 65.2306C15.9736 65.3796 16.0587 65.5151 16.1699 65.6273L16.0857 65.9248L30.3159 69.8448L30.3247 70.0002L54.1411 64.8776ZM36.8084 1.51009C37.2941 1.05236 37.737 1.11525 37.7425 1.1147L37.8081 1.12673C40.7875 1.49314 41.4164 9.35064 41.4208 13.6567L35.8563 12.937C34.8298 5.13423 35.9865 2.28665 36.8084 1.51009ZM47.4605 16.6312L51.7551 63.1653L32.3995 67.3281L29.7636 14.3398L47.4605 16.6312ZM30.1557 66.7375L25.8923 58.3495L18.2366 63.3698L23.1699 14.8194L27.6166 15.6129L30.1557 66.7375ZM29.1943 67.2773L18.685 64.3827L25.4635 59.9371L29.1943 67.2773Z" fill="#388C67"/>
</g>
<defs>
<clipPath id="clip0_2569_19861">
<rect width="70" height="70" fill="white"/>
</clipPath>
</defs>
</svg>
